<svg width="16" height="16" viewBox="0 0 16 16" fill="none" xmlns="https://www.w3.org/2000/svg">
<path d="M11.5 7.5C11.7761 7.5 12 7.72386 12 8C12 8.27614 11.7761 8.5 11.5 8.5H2C1.72386 8.5 1.5 8.27614 1.5 8C1.5 7.72386 1.72386 7.5 2 7.5H11.5Z"/>
<path d="M6.64645 3.14645C6.84171 2.95118 7.15822 2.95118 7.35348 3.14645L11.8535 7.64645C12.0487 7.84171 12.0487 8.15822 11.8535 8.35348L7.35348 12.8535C7.15822 13.0487 6.84171 13.0487 6.64645 12.8535C6.45118 12.6582 6.45118 12.3417 6.64645 12.1464L10.7929 7.99996L6.64645 3.85348C6.45118 3.65822 6.45118 3.34171 6.64645 3.14645Z"/>
<path d="M13 13.5V2.5C13 2.22386 13.2239 2 13.5 2C13.7761 2 14 2.22386 14 2.5V13.5C14 13.7761 13.7761 14 13.5 14C13.2239 14 13 13.7761 13 13.5Z"/>
</svg>
