<svg width="16" height="16" viewBox="0 0 16 16" fill="none" xmlns="https://www.w3.org/2000/svg">
<path d="M7.5 9.875C7.5 9.44402 7.32916 9.03033 7.02441 8.72559C6.71967 8.42084 6.30598 8.25 5.875 8.25H2.5V11.5H5.875C6.30598 11.5 6.71967 11.3292 7.02441 11.0244C7.32916 10.7197 7.5 10.306 7.5 9.875ZM7 5.875C7 5.51033 6.85552 5.16021 6.59766 4.90234C6.33979 4.64448 5.98967 4.5 5.625 4.5H2.5V7.25H5.625C5.98967 7.25 6.33979 7.10552 6.59766 6.84766C6.85552 6.58979 7 6.23967 7 5.875ZM8 5.875C8 6.50489 7.75009 7.10929 7.30469 7.55469C7.27903 7.58034 7.25032 7.6026 7.22363 7.62695C7.40623 7.73649 7.57835 7.86546 7.73145 8.01855C8.22373 8.51084 8.5 9.17881 8.5 9.875C8.5 10.5712 8.22373 11.2392 7.73145 11.7314C7.23916 12.2237 6.57119 12.5 5.875 12.5H2C1.72386 12.5 1.5 12.2761 1.5 12V4C1.5 3.72386 1.72386 3.5 2 3.5H5.625C6.25489 3.5 6.85929 3.74991 7.30469 4.19531C7.75009 4.64071 8 5.24511 8 5.875Z"/>
<path d="M14.5 4.5C14.7761 4.5 15 4.72386 15 5C15 5.27614 14.7761 5.5 14.5 5.5H10.5C10.2239 5.5 10 5.27614 10 5C10 4.72386 10.2239 4.5 10.5 4.5H14.5Z"/>
<path d="M10.9473 6.93326C11.5567 6.56453 12.2773 6.42463 12.9805 6.53873C13.6836 6.65283 14.3236 7.01282 14.7852 7.55533C15.2468 8.09788 15.5 8.78732 15.5 9.49967C15.5 9.63228 15.4473 9.75942 15.3535 9.85318C15.2597 9.94695 15.1326 9.99967 15 9.99967H10.5654C10.5871 10.0834 10.6129 10.1667 10.6455 10.2477C10.8231 10.688 11.1517 11.0508 11.5723 11.2712C11.9928 11.4914 12.4783 11.5555 12.9414 11.4508C13.4044 11.3461 13.8147 11.0795 14.0996 10.6999C14.2652 10.4791 14.5789 10.4339 14.7998 10.5993C15.0206 10.7649 15.0658 11.0786 14.9004 11.2995C14.473 11.8694 13.8559 12.2684 13.1611 12.4254C12.4664 12.5824 11.7383 12.4875 11.1074 12.1569C10.4767 11.8263 9.98412 11.2822 9.71777 10.6217C9.57553 10.2689 9.50549 9.89478 9.50293 9.52018C9.50265 9.51334 9.5 9.50657 9.5 9.49967C9.5 9.48979 9.50236 9.48011 9.50293 9.47037C9.50596 9.16023 9.55474 8.85021 9.6543 8.55143C9.87956 7.87565 10.3378 7.302 10.9473 6.93326ZM12.8203 7.52506C12.3516 7.44902 11.8711 7.54293 11.4648 7.78873C11.0586 8.0345 10.7527 8.41647 10.6025 8.86686C10.588 8.91059 10.5759 8.95528 10.5645 8.99967H14.4355C14.3604 8.7087 14.221 8.43597 14.0234 8.20377C13.7157 7.84207 13.2891 7.60113 12.8203 7.52506Z"/>
</svg>
