<svg width="16" height="16" viewBox="0 0 16 16" fill="none" xmlns="http://www.w3.org/2000/svg" stroke="none">
<path d="M4.99506 13.1945C6.25539 13.9239 7.73798 14.1701 9.16642 13.8871C10.5949 13.6042 11.8716 12.8114 12.7587 11.6566C13.6458 10.5017 14.0827 9.06374 13.9878 7.61063C13.8929 6.15753 13.2729 4.78852 12.2432 3.75883C11.2135 2.72915 9.84448 2.10907 8.39138 2.01422C6.93828 1.91936 5.50027 2.3562 4.34546 3.24328C3.19065 4.13037 2.39786 5.40715 2.1149 6.83559C1.83194 8.26403 2.07813 9.74662 2.80756 11.007L2.02568 13.3413C1.9963 13.4294 1.99204 13.524 2.01337 13.6144C2.0347 13.7047 2.08078 13.7874 2.14645 13.8531C2.21211 13.9187 2.29477 13.9648 2.38516 13.9861C2.47554 14.0075 2.57008 14.0032 2.65818 13.9738L4.99506 13.1945Z" stroke-linecap="round" stroke-linejoin="round"/>
</svg>
