<svg width="24" height="25" viewBox="0 0 24 25" fill="none" xmlns="https://www.w3.org/2000/svg">
<rect y="0.5" width="24" height="24" rx="12" fill="white"/>
<g clip-path="url(#clip0_108_3989)">
<path d="M11.4121 3.5C13.2042 3.49351 14.9453 4.10674 16.3506 5.23926C16.443 5.31346 16.5342 5.38978 16.623 5.46777C16.6338 5.47715 16.6445 5.48666 16.6553 5.49609C16.6621 5.502 16.669 5.50775 16.6758 5.51367C16.6938 5.52922 16.7117 5.54485 16.7295 5.56055C16.7524 5.58028 16.7752 5.60014 16.7979 5.62012C16.8005 5.62239 16.8031 5.62468 16.8057 5.62695C16.817 5.63677 16.8286 5.64637 16.8398 5.65625C16.8543 5.66878 16.8684 5.68171 16.8828 5.69434C16.8936 5.70372 16.9043 5.71322 16.915 5.72266C16.9257 5.73189 16.9367 5.74071 16.9473 5.75C16.9584 5.75968 16.9694 5.76956 16.9805 5.7793C16.9873 5.7852 16.9942 5.79095 17.001 5.79688C17.0156 5.80956 17.0304 5.82218 17.0449 5.83496C17.0557 5.84434 17.0664 5.85385 17.0771 5.86328C17.0843 5.86949 17.0915 5.87561 17.0986 5.88184C17.1133 5.89452 17.128 5.90714 17.1426 5.91992C17.1537 5.9296 17.1647 5.93948 17.1758 5.94922C17.1829 5.95543 17.1901 5.96154 17.1973 5.96777C17.2133 5.98166 17.2292 5.99575 17.2451 6.00977C17.2682 6.02965 17.2916 6.0492 17.3145 6.06934C17.3333 6.08562 17.3524 6.10172 17.3711 6.11816C17.3815 6.12724 17.3919 6.13638 17.4023 6.14551C17.4135 6.15519 17.4245 6.16507 17.4355 6.1748C17.443 6.18131 17.4505 6.1878 17.458 6.19434C17.4721 6.20656 17.486 6.21913 17.5 6.23145C17.5108 6.24082 17.5215 6.25033 17.5322 6.25977C17.5429 6.269 17.5539 6.27782 17.5645 6.28711C17.5756 6.29679 17.5866 6.30667 17.5977 6.31641C17.6045 6.32231 17.6114 6.32806 17.6182 6.33398C17.6365 6.34984 17.6547 6.36583 17.6729 6.38184C17.6762 6.38471 17.6793 6.38774 17.6826 6.39062C17.694 6.40044 17.7055 6.41004 17.7168 6.41992C17.7311 6.43231 17.7455 6.44455 17.7598 6.45703C17.772 6.46761 17.7838 6.4786 17.7959 6.48926C17.8157 6.50628 17.8359 6.52284 17.8555 6.54004C17.8755 6.55743 17.8952 6.5752 17.915 6.59277C17.9243 6.6008 17.9341 6.60815 17.9434 6.61621C17.9582 6.62904 17.9726 6.64235 17.9873 6.65527C17.9979 6.66451 18.0089 6.67333 18.0195 6.68262C18.0307 6.6923 18.0416 6.70218 18.0527 6.71191C18.0635 6.72129 18.0742 6.7308 18.085 6.74023C18.0918 6.74614 18.0987 6.75189 18.1055 6.75781C18.1201 6.7705 18.1348 6.78311 18.1494 6.7959C18.1602 6.80528 18.1709 6.81479 18.1816 6.82422C18.1891 6.83072 18.1966 6.83722 18.2041 6.84375C18.2188 6.85644 18.2335 6.86905 18.248 6.88184C19.5016 7.97088 20.3989 9.42823 20.8135 11.0576C20.8575 11.2336 20.8628 11.4174 20.8291 11.5957C20.7954 11.7741 20.7232 11.943 20.6182 12.0898C20.5131 12.2366 20.3771 12.358 20.2207 12.4453C20.0641 12.5326 19.8901 12.5846 19.7119 12.5957L19.0098 12.6309C19.0128 12.6336 19.0155 12.6369 19.0186 12.6396C19.0305 12.6498 19.0422 12.6603 19.0537 12.6709C19.0635 12.6793 19.0735 12.6876 19.083 12.6963C19.0969 12.7081 19.1107 12.72 19.124 12.7324C19.1315 12.7389 19.1391 12.7453 19.1465 12.752C19.1576 12.7614 19.1689 12.7704 19.1797 12.7803C19.1939 12.7924 19.208 12.8046 19.2217 12.8174C19.2292 12.8239 19.2368 12.8302 19.2441 12.8369C19.2564 12.8474 19.2684 12.8582 19.2803 12.8691C19.2899 12.8774 19.3002 12.885 19.3096 12.8936C19.3238 12.9057 19.3379 12.9179 19.3516 12.9307C19.3591 12.9372 19.3667 12.9435 19.374 12.9502C19.3848 12.9593 19.3958 12.968 19.4062 12.9775C19.4173 12.987 19.4287 12.996 19.4395 13.0059C19.4537 13.018 19.4678 13.0302 19.4814 13.043C19.4921 13.0522 19.5024 13.0617 19.5127 13.0713C19.5219 13.0793 19.531 13.0874 19.54 13.0957C19.5485 13.1029 19.5572 13.1097 19.5654 13.1172C19.5774 13.1273 19.5899 13.1369 19.6016 13.1475C19.6126 13.1569 19.624 13.166 19.6348 13.1758C19.6478 13.1869 19.6613 13.1974 19.6738 13.209C19.6855 13.2191 19.6967 13.2297 19.708 13.2402C19.7159 13.247 19.7238 13.2537 19.7314 13.2607C19.7439 13.2714 19.7565 13.2818 19.7686 13.293C19.778 13.3011 19.7877 13.309 19.7969 13.3174C19.809 13.3277 19.8213 13.3378 19.833 13.3486C19.8425 13.3568 19.8521 13.3646 19.8613 13.373C19.8736 13.3835 19.8856 13.3943 19.8975 13.4053C19.9117 13.4174 19.9258 13.4296 19.9395 13.4424C19.9443 13.4466 19.9493 13.4507 19.9541 13.4551C19.9668 13.4658 19.9799 13.4761 19.9922 13.4873C20.0012 13.4949 20.0108 13.5019 20.0195 13.5098C20.0368 13.5243 20.0538 13.5392 20.0703 13.5547C20.0752 13.5589 20.0802 13.563 20.085 13.5674C20.1019 13.5816 20.1186 13.5962 20.1348 13.6113C20.141 13.6168 20.1472 13.6223 20.1533 13.6279C20.1693 13.6415 20.1849 13.6555 20.2002 13.6699C20.2154 13.6824 20.2315 13.6938 20.2461 13.707C20.2638 13.7219 20.281 13.7371 20.2979 13.7529C20.3069 13.7608 20.3154 13.7692 20.3242 13.7773C20.3293 13.7817 20.3348 13.7856 20.3398 13.79C20.3551 13.8028 20.3701 13.8156 20.3848 13.8291C20.3974 13.8399 20.4097 13.851 20.4219 13.8623C20.4947 13.9255 20.5616 13.9959 20.6182 14.0752C20.7233 14.2225 20.7946 14.3923 20.8281 14.5713C20.8615 14.7501 20.8561 14.9341 20.8115 15.1104C20.3703 16.8601 19.3698 18.4108 17.9678 19.5176C16.5658 20.6242 14.8421 21.2248 13.0684 21.2236H13.043C11.149 21.2175 9.36113 20.5482 7.93359 19.3281C7.91234 19.3104 7.89121 19.2924 7.87012 19.2744C7.848 19.2559 7.82664 19.2365 7.80469 19.2178C7.78081 19.1978 7.75805 19.1765 7.73438 19.1562C7.72482 19.1483 7.71558 19.1399 7.70605 19.1318C7.68678 19.1157 7.66856 19.0983 7.64941 19.082C7.64588 19.0791 7.6422 19.0762 7.63867 19.0732C7.60829 19.0478 7.57986 19.0201 7.5498 18.9941C7.51812 18.9677 7.48739 18.9401 7.45605 18.9131C7.40914 18.874 7.36353 18.8332 7.31738 18.793C7.30268 18.7807 7.28807 18.7683 7.27344 18.7559C7.2436 18.7308 7.21507 18.7042 7.18555 18.6787C7.15832 18.6559 7.13243 18.6316 7.10547 18.6084C7.10283 18.6062 7.10029 18.6038 7.09766 18.6016C7.04015 18.5536 6.98409 18.5038 6.92773 18.4541C6.90597 18.4359 6.88488 18.4169 6.86328 18.3984C6.85177 18.3888 6.84057 18.3788 6.8291 18.3691C6.80577 18.3496 6.78389 18.3284 6.76074 18.3086C6.74429 18.2948 6.72827 18.2805 6.71191 18.2666C6.66252 18.2255 6.61495 18.1821 6.56641 18.1396C6.56391 18.1376 6.56108 18.1359 6.55859 18.1338L6.43848 18.0283C6.38547 17.984 6.33425 17.9374 6.28223 17.8916C6.20955 17.8289 6.13618 17.7667 6.06543 17.7012C5.95691 17.6017 5.84992 17.4997 5.74609 17.3936C4.24531 15.8597 3.41797 13.8164 3.41797 11.6406C3.41801 10.5716 3.62468 9.513 4.02637 8.52539C4.42809 7.53769 5.01751 6.64071 5.75977 5.88477C6.50202 5.12885 7.38276 4.52824 8.35254 4.11914C9.32241 3.71004 10.3624 3.49996 11.4121 3.5ZM13.1074 11.0918C12.9395 11.4872 12.71 11.8538 12.4082 12.1611C12.0664 12.5092 11.6545 12.772 11.2051 12.9434C11.2327 12.9668 11.2602 12.9903 11.2871 13.0146C11.2907 13.0178 11.2942 13.0212 11.2979 13.0244C11.3118 13.0365 11.3261 13.0482 11.3398 13.0605C11.3473 13.0671 11.3549 13.0735 11.3623 13.0801C11.3759 13.0919 11.3899 13.1032 11.4033 13.1152C11.4094 13.1205 11.4158 13.1255 11.4219 13.1309C11.4373 13.1441 11.4526 13.1574 11.4678 13.1709C11.4838 13.1848 11.4999 13.1986 11.5156 13.2129C11.5191 13.2159 11.522 13.2196 11.5254 13.2227C11.5383 13.2338 11.5517 13.2445 11.5645 13.2559C11.5887 13.2764 11.613 13.2971 11.6367 13.3184C11.6431 13.324 11.6499 13.3293 11.6562 13.335C11.6695 13.3464 11.6822 13.3584 11.6953 13.3701C11.704 13.3777 11.713 13.3849 11.7217 13.3926C11.7374 13.4062 11.7531 13.4197 11.7686 13.4336C11.7744 13.4388 11.7803 13.444 11.7861 13.4492C11.7961 13.4578 11.8065 13.4659 11.8164 13.4746C11.8312 13.4874 11.8467 13.4996 11.8613 13.5127C11.8736 13.5232 11.8863 13.5333 11.8984 13.5439C12.322 12.6867 13.1374 12.0876 14.0898 11.9473C14.0732 11.9323 14.0563 11.9177 14.04 11.9023C14.0219 11.8863 14.0031 11.871 13.9854 11.8545C13.9771 11.8471 13.9681 11.8405 13.96 11.833C13.9474 11.8217 13.9342 11.8113 13.9219 11.7998C13.9113 11.7902 13.9001 11.7812 13.8896 11.7715C13.8811 11.7637 13.8717 11.7569 13.8633 11.749C13.849 11.7362 13.8343 11.724 13.8203 11.7109C13.7889 11.6841 13.7568 11.6581 13.7266 11.6299C13.7052 11.6111 13.6829 11.5936 13.6621 11.5742C13.6536 11.5665 13.6442 11.5596 13.6357 11.5518C13.6205 11.538 13.6048 11.5248 13.5898 11.5107C13.5708 11.4939 13.5508 11.4783 13.5322 11.4609C13.5237 11.4532 13.5143 11.4463 13.5059 11.4385C13.4892 11.4235 13.4723 11.4089 13.4561 11.3936C13.4274 11.3688 13.3978 11.3452 13.3701 11.3193C13.3605 11.3107 13.3503 11.3027 13.3408 11.2939C13.3182 11.2742 13.2944 11.2558 13.2725 11.2354C13.2615 11.2254 13.2501 11.2161 13.2393 11.2061C13.2275 11.1957 13.2148 11.1863 13.2031 11.1758C13.1782 11.1538 13.1531 11.1322 13.1289 11.1094C13.1248 11.1056 13.1203 11.1024 13.1162 11.0986C13.1135 11.0962 13.1102 11.0943 13.1074 11.0918Z" fill="#4B1B32"/>
<path d="M14.6704 12.471L18.0222 12.6803C18.1208 12.6866 18.2168 12.715 18.3033 12.7635C18.3899 12.8119 18.4649 12.8792 18.523 12.9606C18.581 13.042 18.6208 13.1355 18.6393 13.2344C18.6578 13.3332 18.6546 13.435 18.63 13.5325C17.8024 16.816 14.8726 19.2416 11.3892 19.2289C10.4123 19.2278 9.44494 19.0306 8.5429 18.6486C7.6409 18.2666 6.82163 17.7073 6.13197 17.0027C5.44228 16.298 4.89573 15.4618 4.52355 14.5419C4.15136 13.622 3.96085 12.6364 3.96291 11.6414C3.96291 7.45084 7.29887 4.05371 11.4132 4.05371C14.8876 4.05371 17.8066 6.47604 18.6308 9.75337C18.6549 9.8506 18.6577 9.95206 18.6389 10.0505C18.6202 10.149 18.5803 10.242 18.5222 10.323C18.464 10.4039 18.3891 10.4708 18.3027 10.5189C18.2164 10.567 18.1206 10.595 18.0224 10.6011L14.6705 10.8104C13.5292 10.8819 12.4823 10.128 12.2045 9.00166C12.1979 8.97481 12.1917 8.9476 12.1857 8.92027L11.8793 7.50646C11.8684 7.45483 11.8403 7.40821 11.7998 7.37497C11.7593 7.34164 11.7088 7.32346 11.6567 7.32346C11.6046 7.32346 11.554 7.34164 11.5135 7.37497C11.4731 7.40821 11.4451 7.4545 11.4341 7.50616L11.1276 8.92195C11.0119 9.45556 10.7488 9.94441 10.3694 10.3308C9.99002 10.7172 9.51007 10.985 8.98615 11.1027L7.59773 11.4147C7.54688 11.426 7.50112 11.4546 7.46848 11.4958C7.43579 11.537 7.41796 11.5884 7.41796 11.6413C7.41796 11.6943 7.43579 11.7456 7.46848 11.7869C7.50112 11.828 7.54662 11.8566 7.59746 11.8678L8.98615 12.1799C9.51007 12.2977 9.99002 12.5655 10.3694 12.9519C10.7488 13.3382 11.0119 13.827 11.1276 14.3607L11.4337 15.775C11.4447 15.8266 11.4728 15.8732 11.5132 15.9065C11.5537 15.9398 11.6043 15.958 11.6564 15.958C11.7085 15.958 11.759 15.9398 11.7995 15.9065C11.84 15.8732 11.868 15.8269 11.879 15.7753L12.1854 14.3609C12.1913 14.3338 12.1976 14.3067 12.2042 14.2793C12.4825 13.153 13.5308 12.3984 14.6704 12.471Z" fill="#EBBF50"/>
<path d="M18.5222 10.323C18.5803 10.242 18.6202 10.149 18.6389 10.0505C18.6577 9.95206 18.6549 9.8506 18.6308 9.75337C17.8066 6.47604 14.8876 4.05371 11.4132 4.05371C7.29887 4.05371 3.96291 7.45084 3.96291 11.6414C3.96085 12.6364 4.15136 13.622 4.52355 14.5419C4.89573 15.4618 5.44228 16.298 6.13197 17.0027C6.82163 17.7073 7.6409 18.2666 8.5429 18.6486C9.44494 19.0306 10.4123 19.2278 11.3892 19.2289C14.8726 19.2416 17.8024 16.816 18.63 13.5325C18.6546 13.435 18.6578 13.3332 18.6393 13.2344C18.6208 13.1355 18.581 13.042 18.523 12.9606C18.4649 12.8792 18.3899 12.8119 18.3033 12.7635C18.2168 12.715 18.1208 12.6866 18.0222 12.6803L14.6704 12.471C13.5308 12.3984 12.4825 13.153 12.2042 14.2793C12.1976 14.3067 12.1913 14.3338 12.1854 14.3609L11.879 15.7753C11.868 15.8269 11.84 15.8732 11.7995 15.9065M18.5222 10.323L18.6056 10.3849M18.5222 10.323C18.464 10.4039 18.3891 10.4708 18.3027 10.5189C18.2164 10.567 18.1206 10.595 18.0224 10.6011L14.6705 10.8104C13.5292 10.8819 12.4823 10.128 12.2045 9.00166C12.1979 8.97481 12.1917 8.9476 12.1857 8.92027L11.8793 7.50646C11.8684 7.45483 11.8403 7.40821 11.7998 7.37497C11.7593 7.34164 11.7088 7.32346 11.6567 7.32346C11.6046 7.32346 11.554 7.34164 11.5135 7.37497C11.4731 7.40821 11.4451 7.4545 11.4341 7.50616L11.1276 8.92195C11.0119 9.45556 10.7488 9.94441 10.3694 10.3308C9.99002 10.7172 9.51007 10.985 8.98615 11.1027L7.59773 11.4147C7.54688 11.426 7.50112 11.4546 7.46848 11.4958C7.43579 11.537 7.41796 11.5884 7.41796 11.6413C7.41796 11.6943 7.43579 11.7456 7.46848 11.7869C7.50112 11.828 7.54662 11.8566 7.59746 11.8678L8.98615 12.1799C9.51007 12.2977 9.99002 12.5655 10.3694 12.9519C10.7488 13.3382 11.0119 13.827 11.1276 14.3607L11.4337 15.775C11.4447 15.8266 11.4728 15.8732 11.5132 15.9065M11.5132 15.9065L11.5782 15.8249M11.5132 15.9065C11.5537 15.9398 11.6043 15.958 11.6564 15.958C11.7085 15.958 11.759 15.9398 11.7995 15.9065M11.7995 15.9065L11.7346 15.8249" stroke="#4B1B32" stroke-width="0.7"/>
</g>
<defs>
<clipPath id="clip0_108_3989">
<rect width="18" height="18" fill="white" transform="translate(3 3.5)"/>
</clipPath>
</defs>
</svg>
