<svg width="16" height="16" viewBox="0 0 16 16" fill="none" xmlns="http://www.w3.org/2000/svg">
<path d="M13.5 8C13.5 4.96243 11.0376 2.5 8 2.5C4.96243 2.5 2.5 4.96243 2.5 8C2.5 11.0376 4.96243 13.5 8 13.5C11.0376 13.5 13.5 11.0376 13.5 8ZM14.5 8C14.5 11.5899 11.5899 14.5 8 14.5C4.41015 14.5 1.5 11.5899 1.5 8C1.5 4.41015 4.41015 1.5 8 1.5C11.5899 1.5 14.5 4.41015 14.5 8Z"/>
<path d="M12.9999 7.5C13.3534 7.5 13.7034 7.5177 14.0487 7.55176C14.3235 7.57888 14.525 7.82383 14.4979 8.09863C14.4708 8.3733 14.2257 8.57384 13.951 8.54688C13.7942 8.5314 13.6361 8.51959 13.4774 8.51172L12.9999 8.5C11.3638 8.4991 9.75502 8.92095 8.32996 9.72461C6.90479 10.5284 5.71079 11.6872 4.86511 13.0879C4.72233 13.3241 4.41492 13.4005 4.17859 13.2578C3.9423 13.1151 3.86703 12.8076 4.00964 12.5713C4.94438 11.0231 6.2635 9.74198 7.83874 8.85352C9.41379 7.96528 11.1916 7.49906 12.9999 7.5Z"/>
<path d="M11.3624 3.00274C11.5366 2.78858 11.8513 2.75632 12.0655 2.93047C12.2797 3.10474 12.312 3.41939 12.1378 3.6336C11.1542 4.84255 9.91367 5.81732 8.50593 6.48614C7.18613 7.11315 5.75056 7.4564 4.29206 7.4959L4.00007 7.49981C3.33628 7.49995 2.67365 7.43736 2.02156 7.31328C1.75056 7.26152 1.57264 7.00038 1.6241 6.7293C1.67571 6.45802 1.93778 6.28022 2.20906 6.33184C2.79942 6.44414 3.39912 6.49995 4.00007 6.49981H4.00105C5.41075 6.50089 6.80291 6.1877 8.07624 5.58282C9.34972 4.97781 10.4726 4.09638 11.3624 3.00274Z"/>
<path d="M9.80884 11.2307C9.80956 9.57453 9.37678 7.94637 8.55396 6.50904C7.73119 5.07194 6.54674 3.87526 5.11841 3.03736C4.88029 2.89768 4.80014 2.59095 4.9397 2.35279C5.07938 2.11467 5.38611 2.03452 5.62427 2.17408C7.20328 3.10032 8.51264 4.42422 9.42212 6.01294C10.3315 7.60153 10.8096 9.40027 10.8088 11.2307L10.804 11.552C10.7816 12.3014 10.6791 13.0465 10.4983 13.7747C10.4318 14.0426 10.1608 14.2064 9.89283 14.1399C9.625 14.0734 9.46138 13.8023 9.52759 13.5344C9.69131 12.8752 9.78469 12.2001 9.80494 11.5217L9.80884 11.2307Z"/>
</svg>
