<svg width="16" height="16" viewBox="0 0 16 16" fill="none" xmlns="https://www.w3.org/2000/svg" stroke="none">
<path d="M10.5 10C11.6046 10 12.5 9.10457 12.5 8C12.5 6.89543 11.6046 6 10.5 6C9.39543 6 8.5 6.89543 8.5 8C8.5 9.10457 9.39543 10 10.5 10Z" stroke-width="1" stroke-linecap="round" stroke-linejoin="round"/>
<path d="M8.5 6H10.5C11.0304 6 11.5391 5.78929 11.9142 5.41421C12.2893 5.03914 12.5 4.53043 12.5 4C12.5 3.46957 12.2893 2.96086 11.9142 2.58579C11.5391 2.21071 11.0304 2 10.5 2H8.5" stroke-width="1" stroke-linecap="round" stroke-linejoin="round"/>
<path d="M8.5 2H6C5.46957 2 4.96086 2.21071 4.58579 2.58579C4.21071 2.96086 4 3.46957 4 4C4 4.53043 4.21071 5.03914 4.58579 5.41421C4.96086 5.78929 5.46957 6 6 6H8.5V2Z" stroke-width="1" stroke-linecap="round" stroke-linejoin="round"/>
<path d="M8.5 6H6C5.46957 6 4.96086 6.21071 4.58579 6.58579C4.21071 6.96086 4 7.46957 4 8C4 8.53043 4.21071 9.03914 4.58579 9.41421C4.96086 9.78929 5.46957 10 6 10H8.5V6Z" stroke-width="1" stroke-linecap="round" stroke-linejoin="round"/>
<path d="M8.5 10H6.25C5.80499 10 5.36998 10.132 4.99997 10.3792C4.62996 10.6264 4.34157 10.9778 4.17127 11.389C4.00097 11.8001 3.95642 12.2525 4.04323 12.689C4.13005 13.1254 4.34434 13.5263 4.65901 13.841C4.97368 14.1557 5.37459 14.37 5.81105 14.4568C6.24751 14.5436 6.69991 14.499 7.11104 14.3287C7.52217 14.1584 7.87357 13.87 8.12081 13.5C8.36804 13.13 8.5 12.695 8.5 12.25V10Z" stroke-width="1" stroke-linecap="round" stroke-linejoin="round"/>
</svg>
