<svg width="16" height="16" viewBox="0 0 16 16" fill="none" xmlns="http://www.w3.org/2000/svg">
<path d="M2.5 2.5V13.5H13.5V2.5H2.5ZM14.5 13.5C14.5 14.0523 14.0523 14.5 13.5 14.5H2.5C1.94772 14.5 1.5 14.0523 1.5 13.5V2.5C1.5 1.94772 1.94772 1.5 2.5 1.5H13.5C14.0523 1.5 14.5 1.94772 14.5 2.5V13.5Z"/>
<path d="M7 11V7C7 6.72386 7.22386 6.5 7.5 6.5C7.77614 6.5 8 6.72386 8 7V11C8 11.2761 7.77614 11.5 7.5 11.5C7.22386 11.5 7 11.2761 7 11Z"/>
<path d="M5 11V7C5 6.72386 5.22386 6.5 5.5 6.5C5.77614 6.5 6 6.72386 6 7V11C6 11.2761 5.77614 11.5 5.5 11.5C5.22386 11.5 5 11.2761 5 11Z"/>
<path d="M10.5 11V8.75C10.5 8.41848 10.3682 8.10063 10.1338 7.86621C9.89937 7.63179 9.58152 7.5 9.25 7.5C8.91848 7.5 8.60063 7.63179 8.36621 7.86621C8.13179 8.10063 8 8.41848 8 8.75C8 9.02614 7.77614 9.25 7.5 9.25C7.22386 9.25 7 9.02614 7 8.75C7 8.15326 7.23722 7.58114 7.65918 7.15918C8.08114 6.73722 8.65326 6.5 9.25 6.5C9.84674 6.5 10.4189 6.73722 10.8408 7.15918C11.2628 7.58114 11.5 8.15326 11.5 8.75V11C11.5 11.2761 11.2761 11.5 11 11.5C10.7239 11.5 10.5 11.2761 10.5 11Z"/>
<path d="M5.5 5.75C5.77614 5.75 6 5.52614 6 5.25C6 4.97386 5.77614 4.75 5.5 4.75C5.22386 4.75 5 4.97386 5 5.25C5 5.52614 5.22386 5.75 5.5 5.75Z"/>
</svg>
