<svg width="16" height="16" viewBox="0 0 16 16" fill="none" xmlns="http://www.w3.org/2000/svg">
<path d="M7.5 8C7.5 6.34315 6.15685 5 4.5 5C2.84315 5 1.5 6.34315 1.5 8C1.5 9.65685 2.84315 11 4.5 11C6.15685 11 7.5 9.65685 7.5 8ZM8.5 8C8.5 10.2091 6.70914 12 4.5 12C2.29086 12 0.5 10.2091 0.5 8C0.5 5.79086 2.29086 4 4.5 4C6.70914 4 8.5 5.79086 8.5 8Z"/>
<path d="M12.5 8C12.5 7.08459 12.3405 6.27917 12.1016 5.72168C11.9817 5.44214 11.8511 5.24802 11.7324 5.13086C11.6159 5.01593 11.538 5 11.5 5C11.462 5 11.3841 5.01593 11.2676 5.13086C11.1489 5.24802 11.0183 5.44214 10.8984 5.72168C10.6595 6.27917 10.5 7.08459 10.5 8C10.5 8.91541 10.6595 9.72083 10.8984 10.2783C11.0183 10.5579 11.1489 10.752 11.2676 10.8691C11.3841 10.9841 11.462 11 11.5 11C11.538 11 11.6159 10.9841 11.7324 10.8691C11.8511 10.752 11.9817 10.5579 12.1016 10.2783C12.3405 9.72083 12.5 8.91541 12.5 8ZM13.5 8C13.5 9.01756 13.3245 9.96262 13.0205 10.6719C12.8689 11.0256 12.6757 11.344 12.4355 11.5811C12.1932 11.8202 11.8762 12 11.5 12C11.1238 12 10.8068 11.8202 10.5645 11.5811C10.3243 11.344 10.1311 11.0256 9.97949 10.6719C9.67554 9.96262 9.5 9.01756 9.5 8C9.5 6.98244 9.67554 6.03738 9.97949 5.32812C10.1311 4.97444 10.3243 4.65597 10.5645 4.41895C10.8068 4.17978 11.1238 4 11.5 4C11.8762 4 12.1932 4.17978 12.4355 4.41895C12.6757 4.65597 12.8689 4.97444 13.0205 5.32812C13.3245 6.03738 13.5 6.98244 13.5 8Z"/>
<path d="M14.5 11.5V4.5C14.5 4.22386 14.7239 4 15 4C15.2761 4 15.5 4.22386 15.5 4.5V11.5C15.5 11.7761 15.2761 12 15 12C14.7239 12 14.5 11.7761 14.5 11.5Z"/>
</svg>
