<svg width="16" height="16" viewBox="0 0 16 16" fill="none" xmlns="https://www.w3.org/2000/svg">
<path d="M4 7.5C3.72386 7.5 3.5 7.72386 3.5 8C3.5 8.27614 3.72386 8.5 4 8.5H13.5C13.7761 8.5 14 8.27614 14 8C14 7.72386 13.7761 7.5 13.5 7.5H4Z"/>
<path d="M8.85355 3.14645C8.65829 2.95118 8.34178 2.95118 8.14652 3.14645L3.64652 7.64645C3.45126 7.84171 3.45126 8.15822 3.64652 8.35348L8.14652 12.8535C8.34178 13.0487 8.65829 13.0487 8.85355 12.8535C9.04882 12.6582 9.04882 12.3417 8.85355 12.1464L4.70707 7.99996L8.85355 3.85348C9.04882 3.65822 9.04882 3.34171 8.85355 3.14645Z"/>
<path d="M2.5 13.5V2.5C2.5 2.22386 2.27614 2 2 2C1.72386 2 1.5 2.22386 1.5 2.5V13.5C1.5 13.7761 1.72386 14 2 14C2.27614 14 2.5 13.7761 2.5 13.5Z"/>
</svg>
