<svg width="16" height="16" viewBox="0 0 16 16" fill="none" xmlns="https://www.w3.org/2000/svg">
<path d="M13 6.5L12.999 3H9.5C9.22388 2.99996 9 2.77611 9 2.5C9.00004 2.22388 9.22389 2 9.5 2L13.499 2.00098C13.7751 2.00102 13.999 2.2249 13.999 2.50098L14 6.5C14 6.77611 13.7761 6.99996 13.5 7C13.2239 7 13 6.77612 13 6.5Z"/>
<path d="M13.1464 2.14645C13.3417 1.95118 13.6582 1.95118 13.8535 2.14645C14.0487 2.34171 14.0487 2.65822 13.8535 2.85348L8.85348 7.85348C8.65822 8.04874 8.34171 8.04874 8.14645 7.85348C7.95118 7.65822 7.95118 7.34171 8.14645 7.14645L13.1464 2.14645Z"/>
<path d="M2 13V5C2 4.73478 2.10543 4.4805 2.29297 4.29297C2.4805 4.10543 2.73478 4 3 4H7.5C7.77614 4 8 4.22386 8 4.5C8 4.77614 7.77614 5 7.5 5H3V13H11V8.5C11 8.22386 11.2239 8 11.5 8C11.7761 8 12 8.22386 12 8.5V13C12 13.2652 11.8946 13.5195 11.707 13.707C11.5195 13.8946 11.2652 14 11 14H3C2.73478 14 2.48051 13.8946 2.29297 13.707C2.10543 13.5195 2 13.2652 2 13Z"/>
</svg>
