<svg width="16" height="16" viewBox="0 0 16 16" fill="none" xmlns="http://www.w3.org/2000/svg">
<g clip-path="url(#clip0_433_6151)">
<path d="M1.5 7.9996C1.49999 6.28748 2.17558 4.64431 3.37988 3.42733C4.58425 2.21035 6.22053 1.51743 7.93262 1.4996C11.5112 1.46378 14.4695 4.36605 14.5 7.94393C14.5043 8.44884 14.4497 8.9525 14.3379 9.44491V9.44588C14.2369 9.88742 13.989 10.2817 13.6348 10.564C13.2805 10.8463 12.8406 10.9997 12.3877 10.9996H9.5C9.23485 10.9996 8.98049 11.1051 8.79297 11.2926C8.6055 11.48 8.50008 11.7345 8.5 11.9996V12.0006C8.49972 12.3203 8.42253 12.6356 8.27539 12.9195C8.12822 13.2033 7.91538 13.4479 7.6543 13.6324C7.39308 13.817 7.09123 13.9362 6.77441 13.9801C6.45761 14.0239 6.13455 13.991 5.83301 13.8844C3.33482 13.0014 1.5 10.8554 1.5 7.9996ZM2.5 7.9996C2.5 10.3699 4.00663 12.1786 6.16699 12.942C6.31748 12.9951 6.47863 13.0116 6.63672 12.9898C6.79506 12.9679 6.94658 12.9082 7.07715 12.816C7.20776 12.7237 7.3141 12.6006 7.3877 12.4586C7.44283 12.3521 7.47887 12.2371 7.49316 12.1187L7.5 11.9996C7.50008 11.4693 7.71094 10.9605 8.08594 10.5855C8.461 10.2106 8.96964 9.9996 9.5 9.9996H12.3887C12.615 9.99953 12.8347 9.9229 13.0117 9.78182C13.1887 9.64074 13.3127 9.44384 13.3633 9.22323L13.4248 8.90878C13.4774 8.59306 13.5027 8.27319 13.5 7.95272C13.4742 4.92815 10.9687 2.46924 7.94238 2.4996C6.49392 2.51477 5.10981 3.10092 4.09082 4.13046C3.07179 5.16021 2.49999 6.55088 2.5 7.9996Z"/>
<path d="M8 5.5C8.41421 5.5 8.75 5.16421 8.75 4.75C8.75 4.33579 8.41421 4 8 4C7.58579 4 7.25 4.33579 7.25 4.75C7.25 5.16421 7.58579 5.5 8 5.5Z"/>
<path d="M5.25 7C5.66421 7 6 6.66421 6 6.25C6 5.83579 5.66421 5.5 5.25 5.5C4.83579 5.5 4.5 5.83579 4.5 6.25C4.5 6.66421 4.83579 7 5.25 7Z"/>
<path d="M5.25 10.5C5.66421 10.5 6 10.1642 6 9.75C6 9.33579 5.66421 9 5.25 9C4.83579 9 4.5 9.33579 4.5 9.75C4.5 10.1642 4.83579 10.5 5.25 10.5Z"/>
<path d="M10.75 7C11.1642 7 11.5 6.66421 11.5 6.25C11.5 5.83579 11.1642 5.5 10.75 5.5C10.3358 5.5 10 5.83579 10 6.25C10 6.66421 10.3358 7 10.75 7Z"/>
</g>
<defs>
<clipPath id="clip0_433_6151">
<rect width="16" height="16" fill="white"/>
</clipPath>
</defs>
</svg>
